<svg version="1.1" xmlns="http://www.w3.org/2000/svg" preserveAspectRatio="xMidYMid meet" viewBox="0 0 100 100"
     width="100" height="100">
  <defs>
    <symbol id="m" viewBox="0 0 100 100">
      <path d="M15 60 l 30 -20 l 40 30" fill="transparent" stroke-width="10" stroke-linecap="round"
            stroke-linejoin="round"></path>
      <path d="M50 45 l 15 -10 l 20 15" fill="transparent" stroke-width="6" stroke-linecap="round"
            stroke-linejoin="round"></path>
    </symbol>
    <symbol id="h" viewBox="0 0 100 100">
      <path d="M15 65 q 25 -25, 50 0" fill="transparent" stroke-width="10" stroke-linecap="round"
            stroke-linejoin="round"></path>
      <path d="M45 50 q 20 -20, 40 0" fill="transparent" stroke-width="6" stroke-linecap="round"
            stroke-linejoin="round"></path>
    </symbol>
    <symbol id="p" viewBox="0 0 100 100">
      <path d="M15 30 h 30" fill="transparent" stroke-width="6" stroke-linecap="round" stroke-linejoin="round"></path>
      <path d="M15 69 h 50" fill="transparent" stroke-width="10" stroke-linecap="round" stroke-linejoin="round"></path>
      <path d="M25 60 h 60" fill="transparent" stroke-width="10" stroke-linecap="round" stroke-linejoin="round"></path>
    </symbol>
    <symbol id="w" viewBox="0 0 100 100">
      <path d="M20 50 q 15 15, 30 0 q 15 15, 30 0" fill="transparent" stroke-width="10" stroke-linecap="round"
            stroke-linejoin="round"></path>
    </symbol>
    <symbol id="f" viewBox="0 0 100 100">
      <path d="M37 70 v -40" fill="transparent" stroke-width="6" stroke-linecap="round" stroke-linejoin="round"></path>
      <path d="M52 75 v -50" fill="transparent" stroke-width="10" stroke-linecap="round" stroke-linejoin="round"></path>
      <path d="M67 65 v -30" fill="transparent" stroke-width="6" stroke-linecap="round" stroke-linejoin="round"></path>
    </symbol>
    <symbol id="s" viewBox="0 0 100 100">
      <path d="M0 100 v -100 h 20 v 15 h 20 v -15 h 20 v 15 h 20 v -15 h 20 v 100 h -100" stroke-width="1" stroke="#ccc"
            fill="#ccc"></path>
      <path d="M35 100 v -30 q 15 -15, 30 0 v 30 h -30" fill="#888"></path>
    </symbol>
    <symbol id="banner" viewBox="0 0 100 100">
      <path d="M92 8 v 15 c 0 0, 0 5, -10 10 c -10 -5, -10 -10, -10 -10 v -15 h 20" stroke-width="3"
            stroke-linecap="square" stroke="#888"></path>
    </symbol>
    <symbol id="debt" viewBox="0 0 100 100">
      <path d="M80 15 v 45 c 0 0, 0 15, -30 30 c -30 -15, -30 -30, -30 -30 v -45 h 60" stroke-width="4"
            stroke-linecap="square" stroke="#888"></path>
    </symbol>
    <symbol id="coin" viewBox="0 0 100 100">
      <circle cx="50" cy="50" r="38" stroke-width="6" stroke="#c9bd4b" fill="#ddcf52"></circle>
      <path d="M50 62 v -24" stroke-width="25" stroke-linecap="round" stroke="#c9bd4b"></path>
    </symbol>
    <symbol id="medal" viewBox="0 0 100 100">
      <path d="M30 30 h 40 v 60 l -20 -10 l -20 10 v 60" class="lordColor"></path>
      <circle cx="50" cy="35" r="24" stroke-width="6" stroke="#c9bd4b" fill="#ddcf52"></circle>
      <path d="M35 35 a 15 15 30 0 1 15 -15" stroke-width="6" stroke-linecap="round" stroke="#c9bd4b"
            fill="transparent"></path>
    </symbol>
    <symbol id="rush" viewBox="0 0 100 100">
      <path d="M50 15 l -30 45 h 30 v 25 l 30 -45 h -30 v -25" stroke-width="6" stroke="#c9bd4b" stroke-linecap="round"
            stroke-linejoin="round" fill="#ddcf52"></path>
    </symbol>
    <symbol id="collect" viewBox="0 0 100 100">
      <path d="M 77 65 a 50 50 0 0 1 -50 -50 a 36 36 0 1 0 50 50" fill="#888"></path>
      <path d="M82 82 l -12 -12" stroke-linecap="round" stroke-width="16" stroke="#c8963e" fill="#c8963e"></path>
    </symbol>
    <symbol id="exit" viewBox="0 0 100 100">
      <path d="M25 25 l 50 50" stroke-width="10" stroke="#666" stroke-linecap="round"></path>
      <path d="M25 75 l 50 -50" stroke-width="10" stroke="#666" stroke-linecap="round"></path>
    </symbol>
    <symbol id="menu" viewBox="0 0 100 100">
      <path d="M20 25 h 60" stroke-width="10" stroke="#666" stroke-linecap="round"></path>
      <path d="M20 50 h 60" stroke-width="10" stroke="#666" stroke-linecap="round"></path>
      <path d="M20 75 h 60" stroke-width="10" stroke="#666" stroke-linecap="round"></path>
    </symbol>
    <symbol id="done" viewBox="0 0 100 100">
      <path d="M25 48 l 20 20 l 35 -35" stroke-width="10" stroke="#ededed" stroke-linecap="round"
            stroke-linejoin="round"></path>
    </symbol>
    <symbol id="enlarge" viewBox="0 0 100 100">
      <path d="M55 45 l 20 -20" stroke-width="8" stroke="#666" stroke-linecap="round"></path>
      <path d="M55 25 h 20 v 20" stroke-width="8" stroke="#666" stroke-linecap="round"></path>
      <path d="M45 55 l -20 20" stroke-width="8" stroke="#666" stroke-linecap="round"></path>
      <path d="M45 75 h -20 v -20" stroke-width="8" stroke="#666" stroke-linecap="round"></path>
    </symbol>
    <symbol id="edit" viewBox="0 0 100 100">
      <path d="M50 25 h -25 v 50 h 50 v -25" stroke="#666" stroke-width="8"
            stroke-linecap="round" stroke-linejoin="round"></path>
      <path d="M72 23 l -25 25 v 4 h 4 l 25 -25 l -4 -4" stroke="#666" stroke-width="6"
            stroke-linecap="round" stroke-linejoin="round"></path>
    </symbol>
    <symbol id="createnew" viewBox="0 0 100 100">
      <circle cx="50" cy="50" r="30" stroke="#666" stroke-width="8"></circle>
      <path d="M50 35 v 30" stroke="#666" stroke-width="8" stroke-linecap="round"></path>
      <path d="M35 50 h 30" stroke="#666" stroke-width="8" stroke-linecap="round"></path>
    </symbol>
    <symbol id="reset" viewBox="0 0 100 100">
      <circle cx="50" cy="50" r="30" stroke="#666" stroke-width="8"></circle>
      <path d="M40 40 l 20 20" stroke="#666" stroke-width="8" stroke-linecap="round"></path>
      <path d="M60 40 l -20 20" stroke="#666" stroke-width="8" stroke-linecap="round"></path>
    </symbol>
    <symbol id="about" viewBox="0 0 100 100">
      <circle cx="50" cy="50" r="30" stroke="#666" stroke-width="8"></circle>
      <path d="M50 65 v -20" stroke-width="8" stroke-linecap="round" stroke="#666"></path>
      <path d="M50 32 v 0" stroke-width="8" stroke-linecap="round" stroke="#666"></path>
    </symbol>
    <symbol id="help" viewBox="0 0 100 100">
      <path d="M50 30 q 20 -15, 40 0 v 50 q -20 -15, -40 0 q -20 -15, -40 0 v -50 q 20 -15, 40 0 v 50"
            stroke-width="8" stroke="#666" stroke-linejoin="round" stroke-linecap="round"></path>
    </symbol>
    <symbol id="new" viewBox="0 0 100 100">
      <path d="M50 20 l 10 20 l 20 10 l -20 10 l -10 20 l -10 -20 l -20 -10 l 20 -10 l 10 -20" stroke-width="8"
            stroke-linejoin="round" stroke-linecap="round" stroke="#666"></path>
    </symbol>
    <symbol id="single" viewBox="0 0 100 100">
      <rect x="20" y="20" height="60" width="60" rx="10" stroke="#666" stroke-width="8"></rect>
    </symbol>
    <symbol id="cross" viewBox="0 0 100 100">
      <rect x="37.5" y="12.5" height="75" width="25" rx="3" stroke="#666" stroke-width="6"></rect>
      <rect x="13.5" y="37.5" height="25" width="75" rx="3" stroke="#666" stroke-width="6"></rect>
    </symbol>
    <symbol id="start" viewBox="0 0 100 100">
      <path d="M35 20 l 40 30 l -40 30 v -60" stroke="#666" stroke-width="8" stroke-linecap="round"
            stroke-linejoin="round"></path>
    </symbol>
    <symbol id="save" viewBox="0 0 100 100">
      <path d="M30 20 h 40 v 60 l -20 -10 l -20 10 v -60" stroke="#666" stroke-width="8" stroke-linejoin="round"
            stroke-linecap="round"></path>
    </symbol>
    <symbol id="chart" viewBox="0 0 100 100">
      <path d="M25 65 v -20" stroke="#666" stroke-width="10" stroke-linecap="round"></path>
      <path d="M50 65 v -40" stroke="#666" stroke-width="10" stroke-linecap="round"></path>
      <path d="M75 65 v -30" stroke="#666" stroke-width="10" stroke-linecap="round"></path>
      <path d="M25 75 v -20" stroke="#666" stroke-width="10" stroke-linecap="square"></path>
      <path d="M50 75 v -40" stroke="#666" stroke-width="10" stroke-linecap="square"></path>
      <path d="M75 75 v -30" stroke="#666" stroke-width="10" stroke-linecap="square"></path>
    </symbol>
  </defs>
</svg>
