<svg version="1.1" xmlns="http://www.w3.org/2000/svg" preserveAspectRatio="xMidYMid meet" viewBox="0 0 100 100"
     width="100" height="100">
  <g>
    <path d="M0 100 v -100 h 20 v 15 h 20 v -15 h 20 v 15 h 20 v -15 h 20 v 100 h -100" stroke-width="2" stroke="#999" fill="#ccc"></path>
    <path d="M35 100 v -30 q 15 -15, 30 0 v 30 h -30" stroke-width="5" stroke="#999" fill="#999"></path>
    <path d="M35 100 v -30 q 15 -15, 30 0 v 30 h -30" stroke-width="1" stroke="#666" fill="#666"></path>
    <path d="M60 26 v 15 c 0 0, 0 5, -10 10 c -10 -5, -10 -10, -10 -10 v -15 h 20" fill="#ddcf52" stroke-width="3" stroke="#999" stroke-linecap="square"></path>
    <path d="M12 70 h 8" stroke-width="8" stroke="#ddd" stroke-linecap="round"></path>
    <path d="M75 55 h 12" stroke-width="8" stroke="#ddd" stroke-linecap="round"></path>
    <path d="M15 50 h 12" stroke-width="8" stroke="#ddd" stroke-linecap="round"></path>
  </g>
</svg>
